<svg id="Capa_1" data-name="Capa 1" xmlns="http://www.w3.org/2000/svg" viewBox="0 0 843.66 968"><defs><style>.cls-1{font-size:103.14px;font-family:PierSans-Medium, Pier Sans;font-weight:500;}.cls-1,.cls-2{fill:#fff;}</style></defs><text class="cls-1" transform="translate(0 937.47)"><tspan xml:space="preserve">A  U  R  E  M  P</tspan></text><path class="cls-2" d="M564.47,238.5c6.8,11,13.56,22,20.4,33q118,189.24,236,378.45,42.3,67.85,84.67,135.66c-.85.93-2,.44-2.93.44q-56.83,0-113.66.08a4.31,4.31,0,0,1-4.24-2.35q-109.2-175.23-218.51-350.4c-.57-.92-1.17-1.83-2.22-3.47v3.91q0,84.45,0,168.9a10,10,0,0,1-1.59,5.56q-54.69,87.56-109.26,175.2a4.8,4.8,0,0,1-4.68,2.66Q394.22,786,340,786.09h-2.78c-.27-1.12.49-1.71.92-2.39L514.41,500.92q23-36.94,46.08-73.88a6.57,6.57,0,0,0,1.16-3.67q0-89.43,0-178.86c0-.28,0-.56-.07-1-.93.31-1.16,1.18-1.56,1.82Q441.25,435.71,322.53,626.06,273.3,705,224.1,784c-.84,1.35-1.6,2.2-3.47,2.19q-62.37-.1-124.73,0c-.29,0-.57,0-1.4-.09l469-752,.53.11v3.25q0,99,0,197.9C564,236.34,563.55,237.54,564.47,238.5Z" transform="translate(-78.17 -34)"/></svg>