<svg xmlns="http://www.w3.org/2000/svg" xmlns:xlink="http://www.w3.org/1999/xlink" viewBox="0 0 836.28 964.28"><defs><style>.cls-1{font-size:102.24px;font-family:PierSans-Medium, Pier Sans;font-weight:500;}.cls-2{fill:url(#Nueva_muestra_de_degradado_1);}.cls-3{fill:url(#Nueva_muestra_de_degradado_1-7);}</style><radialGradient id="Nueva_muestra_de_degradado_1" cx="297.96" cy="615.43" r="801.07" gradientUnits="userSpaceOnUse"><stop offset="0.13" stop-color="#f3dd82"/><stop offset="0.32" stop-color="#d9be69"/><stop offset="0.56" stop-color="#b49447"/><stop offset="0.58" stop-color="#b29144"/><stop offset="0.71" stop-color="#a4802e"/><stop offset="0.79" stop-color="#9f7a26"/><stop offset="0.84" stop-color="#9b741f"/><stop offset="0.92" stop-color="#98701a"/></radialGradient><radialGradient id="Nueva_muestra_de_degradado_1-7" cx="500" cy="408.11" r="383.72" xlink:href="#Nueva_muestra_de_degradado_1"/></defs><g id="Texto"><text class="cls-1" transform="translate(0 934.02)"><tspan xml:space="preserve">A  U  R  E  M  P</tspan></text><path class="cls-2" d="M134.31,956.78H102.72l-6.54,16.46H82.88l31.19-76.68h9l31.08,76.68H140.85Zm-4.19-10.84L118.56,916.8,107,945.94Z" transform="translate(-81.86 -39.22)"/><path class="cls-2" d="M302.59,942.67c0,12.47-4.91,31.18-31,31.18s-31.18-18.71-31.18-31.18V896.56h13v46.11c0,4.29,1,20.45,18.2,20.45s18-16.16,18-20.45V896.56h13Z" transform="translate(-81.86 -39.22)"/><path class="cls-2" d="M433.75,948.91l16.46,24.33H435.49l-14.72-21.78H404.92v21.78h-13V896.56H422c15.23.1,27.5,11.86,27.5,27.4A27.12,27.12,0,0,1,433.75,948.91Zm-12.16-8.29c8.69,0,14.92-7,14.92-16.66s-6.23-16.56-14.92-16.56H404.92v33.22Z" transform="translate(-81.86 -39.22)"/><path class="cls-2" d="M591.6,973.24H537.83V896.56h51.83V907.4H550.81v20.65H582.6V939H550.81V962.4H591.6Z" transform="translate(-81.86 -39.22)"/><path class="cls-2" d="M768.26,973.24H755.18V920l-27.3,53.27h-7.57L692.92,920v53.27h-13V896.56h15.64L724,953.71l28.42-57.15h15.84Z" transform="translate(-81.86 -39.22)"/><path class="cls-2" d="M887.36,953.4H870.6v19.84h-13V896.56h29.75c15.85,0,27.71,12.78,27.71,28.42S903.21,953.3,887.36,953.4ZM902.09,925c0-9.61-6.55-17.58-15.24-17.58H870.6v35.17h16.25C895.54,942.57,902.09,934.7,902.09,925Z" transform="translate(-81.86 -39.22)"/><path class="cls-3" d="M896.44,773.93,747.81,535.73q-91.75-147.08-183.57-294.1a9.2,9.2,0,0,1-1.46-5.19q.06-97.06,0-194.13V39.22A6.85,6.85,0,0,0,561,41.29Q526.31,96.91,491.6,152.5,390.92,313.83,290.22,475.18,201,618.13,111.84,761c-3.23,5.17-6.56,10.28-9.84,15.4V777c.93,0,1.86-.09,2.77-.09q60.26,0,120.48,0a4,4,0,0,0,4-2.14q48.25-77.49,96.6-154.88L558.89,246.49c.4-.63.61-1.47,1.54-1.77,0,.4.05.68.05.95q0,87.72,0,175.43a6.61,6.61,0,0,1-1.14,3.63q-22.64,36.21-45.24,72.45-86.52,138.69-173,277.4c-.42.65-1.19,1.23-.89,2.33h2.73q53.26,0,106.53,0a4.67,4.67,0,0,0,4.6-2.6Q507.24,689,560.57,603.67a14.28,14.28,0,0,0,2.3-8q-.11-82.12-.07-164.28v-3.14A6.29,6.29,0,0,1,565,431q107.28,171.8,214.5,343.69a4,4,0,0,0,3.86,2.3q56.21-.11,112.39-.07c.7,0,1.45.26,2.26-.35C897.47,775.63,897,774.77,896.44,773.93ZM550.89,241.72Q434.4,428.35,317.92,615l-8.77,14.08q-43.23,69.26-86.41,138.56-36.26,0-72.48,0H118.7c.35-.53,434.8-696.75,434.8-696.75q0,82.8,0,165.59c0,.58,0,1.16.07,1.74A12.88,12.88,0,0,0,550.89,241.72Zm1.79,357c-33.47,53.49-68,108.78-105.41,168.91q-32-.07-63.94,0H356.39c42.76-68.54,165.66-265.49,165.66-265.49s25.28-40.54,31.45-50.42v7.65q0,68.15.07,136.3A5,5,0,0,1,552.68,598.74ZM864.78,767.6q-39.35,0-78.68,0Q679.46,596.76,572.87,426a15.21,15.21,0,0,0-3.07-4.16,6.61,6.61,0,0,0,0-.77q0-73.75,0-147.56V268.1q85.07,136.25,170.13,272.56L881.51,767.58Z" transform="translate(-81.86 -39.22)"/></g></svg>