<svg xmlns="http://www.w3.org/2000/svg" viewBox="0 0 836.28 964.28"><defs><style>.cls-1,.cls-2{font-size:102.24px;font-family:PierSans-Medium, Pier Sans;font-weight:500;}.cls-2,.cls-3{fill:#fff;}</style></defs><g id="Texto"><text class="cls-1" transform="translate(0 934.02)"><tspan xml:space="preserve">A  U  R  E  M  P</tspan></text><text class="cls-2" transform="translate(0 934.02)"><tspan xml:space="preserve">A  U  R  E  M  P</tspan></text><path class="cls-3" d="M896.44,773.93,747.81,535.73q-91.75-147.08-183.57-294.1a9.2,9.2,0,0,1-1.46-5.19q.06-97.06,0-194.13V39.22A6.85,6.85,0,0,0,561,41.29Q526.31,96.91,491.6,152.5,390.92,313.83,290.22,475.18,201,618.13,111.84,761c-3.23,5.17-6.56,10.28-9.84,15.4V777c.93,0,1.86-.09,2.77-.09q60.26,0,120.48,0a4,4,0,0,0,4-2.14q48.25-77.49,96.6-154.88L558.89,246.49c.4-.63.61-1.47,1.54-1.77,0,.4.05.68.05.95q0,87.72,0,175.43a6.61,6.61,0,0,1-1.14,3.63q-22.64,36.21-45.24,72.45-86.52,138.69-173,277.4c-.42.65-1.19,1.23-.89,2.33h2.73q53.26,0,106.53,0a4.67,4.67,0,0,0,4.6-2.6Q507.24,689,560.57,603.67a14.28,14.28,0,0,0,2.3-8q-.11-82.12-.07-164.28v-3.14A6.29,6.29,0,0,1,565,431q107.28,171.8,214.5,343.69a4,4,0,0,0,3.86,2.3q56.21-.11,112.39-.07c.7,0,1.45.26,2.26-.35C897.47,775.63,897,774.77,896.44,773.93ZM550.89,241.72Q434.4,428.35,317.92,615l-8.77,14.08q-43.23,69.26-86.41,138.56-36.26,0-72.48,0H118.7c.35-.53,434.8-696.75,434.8-696.75q0,82.8,0,165.59c0,.58,0,1.16.07,1.74A12.88,12.88,0,0,0,550.89,241.72Zm1.79,357c-33.47,53.49-68,108.78-105.41,168.91q-32-.07-63.94,0H356.39c42.76-68.54,165.66-265.49,165.66-265.49s25.28-40.54,31.45-50.42v7.65q0,68.15.07,136.3A5,5,0,0,1,552.68,598.74ZM864.78,767.6q-39.35,0-78.68,0Q679.46,596.76,572.87,426a15.21,15.21,0,0,0-3.07-4.16,6.61,6.61,0,0,0,0-.77q0-73.75,0-147.56V268.1q85.07,136.25,170.13,272.56L881.51,767.58Z" transform="translate(-81.86 -39.22)"/></g></svg>