<svg xmlns="http://www.w3.org/2000/svg" xmlns:xlink="http://www.w3.org/1999/xlink" viewBox="0 0 836.28 971"><defs><style>.cls-1{fill:url(#Degradado_sin_nombre_47);}.cls-2{font-size:102.24px;font-family:PierSans-Medium, Pier Sans;font-weight:500;}.cls-3{fill:url(#Nueva_muestra_de_degradado_1);}</style><radialGradient id="Degradado_sin_nombre_47" cx="324.87" cy="145.43" r="1032.54" gradientUnits="userSpaceOnUse"><stop offset="0.13" stop-color="#f3dd82"/><stop offset="0.32" stop-color="#d9be69"/><stop offset="0.56" stop-color="#b49447"/><stop offset="0.58" stop-color="#b29144"/><stop offset="0.71" stop-color="#a4802e"/><stop offset="0.79" stop-color="#9f7a26"/><stop offset="0.84" stop-color="#9b741f"/><stop offset="0.92" stop-color="#98701a"/></radialGradient><radialGradient id="Nueva_muestra_de_degradado_1" cx="297.96" cy="615.43" r="801.07" xlink:href="#Degradado_sin_nombre_47"/></defs><g id="Texto"><path class="cls-1" d="M563.9,235.14c6.74,10.9,13.44,21.83,20.22,32.71Q701,455.35,818,642.85q41.92,67.23,83.91,134.42c-.85.93-2,.44-2.91.44q-56.31,0-112.62.08a4.26,4.26,0,0,1-4.2-2.34Q673.94,601.83,565.63,428.25c-.57-.91-1.16-1.81-2.2-3.43v3.87q0,83.69,0,167.36a9.82,9.82,0,0,1-1.58,5.5Q507.7,688.33,453.62,775.16A4.77,4.77,0,0,1,449,777.8q-53.78-.13-107.55-.06h-2.75c-.28-1.12.48-1.69.91-2.37q87.35-140.11,174.71-280.2Q537.13,458.55,560,422a6.57,6.57,0,0,0,1.15-3.64q0-88.62,0-177.22c0-.28,0-.56-.07-1-.92.31-1.15,1.17-1.54,1.8Q441.79,430.55,324.17,619.17q-48.78,78.21-97.53,156.44c-.84,1.34-1.59,2.18-3.44,2.18q-61.8-.1-123.6-.06c-.28,0-.56,0-1.39-.08L562.91,32.5l.52.11v3.22q0,98.06,0,196.1C563.45,233,563,234.18,563.9,235.14Z" transform="translate(-81.86 -32.5)"/><text class="cls-2" transform="translate(0 940.74)"><tspan xml:space="preserve">A  U  R  E  M  P</tspan></text><path class="cls-3" d="M134.31,956.78H102.72l-6.54,16.46H82.88l31.19-76.68h9l31.08,76.68H140.85Zm-4.19-10.84L118.56,916.8,107,945.94Z" transform="translate(-81.86 -32.5)"/><path class="cls-3" d="M302.59,942.67c0,12.47-4.91,31.18-31,31.18s-31.18-18.71-31.18-31.18V896.56h13v46.11c0,4.29,1,20.45,18.2,20.45s18-16.16,18-20.45V896.56h13Z" transform="translate(-81.86 -32.5)"/><path class="cls-3" d="M433.75,948.91l16.46,24.33H435.49l-14.72-21.78H404.92v21.78h-13V896.56H422c15.23.1,27.5,11.86,27.5,27.4A27.12,27.12,0,0,1,433.75,948.91Zm-12.16-8.29c8.69,0,14.92-7,14.92-16.66s-6.23-16.56-14.92-16.56H404.92v33.22Z" transform="translate(-81.86 -32.5)"/><path class="cls-3" d="M591.6,973.24H537.83V896.56h51.83V907.4H550.81v20.65H582.6V939H550.81V962.4H591.6Z" transform="translate(-81.86 -32.5)"/><path class="cls-3" d="M768.26,973.24H755.18V920l-27.3,53.27h-7.57L692.92,920v53.27h-13V896.56h15.64L724,953.71l28.42-57.15h15.84Z" transform="translate(-81.86 -32.5)"/><path class="cls-3" d="M887.36,953.4H870.6v19.84h-13V896.56h29.75c15.85,0,27.71,12.78,27.71,28.42S903.21,953.3,887.36,953.4ZM902.09,925c0-9.61-6.55-17.58-15.24-17.58H870.6v35.17h16.25C895.54,942.57,902.09,934.7,902.09,925Z" transform="translate(-81.86 -32.5)"/></g></svg>